<svg width="22" height="27" viewBox="0 0 22 27" fill="none" xmlns="http://www.w3.org/2000/svg">
<path d="M10.9622 25.1368C11.2361 25.1332 11.462 25.0379 11.5946 24.9721C11.7436 24.8983 11.8847 24.8053 12.0107 24.7126C12.2634 24.5267 12.5383 24.2802 12.8155 24.0092C13.3744 23.4629 14.0268 22.7342 14.6687 21.9714C15.9452 20.4544 17.265 18.701 17.8093 17.8133C17.8562 17.7368 17.9026 17.6611 17.9487 17.586C19.4198 15.1898 20.4732 13.4739 20.4339 10.4702C20.3654 5.22459 15.9621 1.06946 10.6487 1.13887C5.33531 1.20829 1.04205 5.47705 1.11058 10.7227C1.15108 13.8226 2.23007 15.5 3.84862 17.9951C4.45427 18.9287 5.84164 20.6493 7.1684 22.1186C7.83583 22.8577 8.51057 23.5586 9.08582 24.0811C9.37123 24.3404 9.65316 24.575 9.91117 24.7507C10.0398 24.8383 10.1832 24.9254 10.3335 24.9935C10.4679 25.0545 10.6932 25.1403 10.9622 25.1368Z" fill="#E4AC3B" stroke="white" stroke-width="2"/>
<path fill-rule="evenodd" clip-rule="evenodd" d="M10.8275 14.8249C13.2194 14.7936 15.1336 12.875 15.1031 10.5395C15.0726 8.20397 13.1089 6.336 10.717 6.36725C8.32511 6.3985 6.41084 8.31714 6.44136 10.6526C6.47187 12.9882 8.43561 14.8561 10.8275 14.8249Z" fill="white"/>
</svg>
