<svg width="191" height="190" viewBox="0 0 191 190" fill="none" xmlns="http://www.w3.org/2000/svg">
<g clip-path="url(#clip0_568_25663)">
<path d="M106.219 25.2229C110.038 29.3501 115.907 30.9147 121.289 29.2396C129.422 26.708 137.993 31.6305 139.855 39.9025C141.087 45.376 145.385 49.6506 150.887 50.8767C159.203 52.7292 164.151 61.2557 161.606 69.3459C159.922 74.6992 161.495 80.5383 165.644 84.3368C171.915 90.0772 171.915 99.9226 165.644 105.663C161.495 109.461 159.922 115.301 161.606 120.654C164.151 128.744 159.203 137.27 150.887 139.123C145.385 140.349 141.088 144.623 139.855 150.097C137.993 158.369 129.422 163.292 121.289 160.76C115.907 159.085 110.038 160.65 106.219 164.777C100.449 171.015 90.5513 171.015 84.7807 164.777C80.9623 160.65 75.0924 159.085 69.7109 160.76C61.5782 163.292 53.0071 158.369 51.1445 150.097C49.9124 144.624 45.6153 140.349 40.1125 139.123C31.797 137.271 26.8482 128.744 29.3935 120.654C31.0774 115.301 29.5047 109.461 25.3557 105.663C19.0852 99.9226 19.0852 90.0772 25.3557 84.3368C29.5047 80.5383 31.0774 74.6992 29.3935 69.3459C26.8486 61.2557 31.797 52.7296 40.1125 50.8767C45.6149 49.651 49.912 45.3764 51.1445 39.9025C53.0068 31.6305 61.5782 26.7076 69.7109 29.2396C75.0924 30.9147 80.9623 29.3501 84.7807 25.2229C90.5513 18.9856 100.449 18.9856 106.219 25.2229Z" fill="#4D4D4D"/>
<path d="M165.644 84.3361C161.495 80.5376 159.922 74.6985 161.606 69.3451C164.151 61.255 159.203 52.7288 150.887 50.876C145.385 49.6503 141.088 45.3757 139.855 39.9017C138.076 31.9975 130.171 27.1566 122.376 28.9501C127.629 30.1677 132.031 34.2522 133.303 39.9017C134.535 45.3753 138.832 49.6499 144.335 50.876C152.65 52.7285 157.599 61.255 155.054 69.3451C153.37 74.6985 154.942 80.5376 159.091 84.3361C165.362 90.0764 165.362 99.9218 159.091 105.662C154.942 109.461 153.37 115.3 155.054 120.653C157.598 128.743 152.65 137.269 144.335 139.122C138.832 140.348 134.535 144.623 133.303 150.097C132.03 155.746 127.629 159.831 122.376 161.048C130.171 162.842 138.076 158.001 139.855 150.097C141.088 144.623 145.385 140.348 150.887 139.122C159.203 137.27 164.152 128.743 161.606 120.653C159.923 115.3 161.495 109.461 165.644 105.662C171.914 99.9218 171.914 90.0764 165.644 84.3361Z" fill="#363636"/>
<path d="M95.4996 153.094C127.753 153.094 153.899 127.084 153.899 95C153.899 62.9157 127.753 36.9062 95.4996 36.9062C63.2465 36.9062 37.1001 62.9157 37.1001 95C37.1001 127.084 63.2465 153.094 95.4996 153.094Z" fill="#FFCC00"/>
<path d="M95.4998 36.9053C94.0211 36.9053 92.5554 36.9609 91.1042 37.0686C121.304 39.304 145.109 64.386 145.109 94.9991C145.109 125.612 121.305 150.694 91.1046 152.93C92.5558 153.037 94.0214 153.093 95.5002 153.093C127.754 153.093 153.9 127.084 153.9 94.9994C153.9 62.9153 127.753 36.9053 95.4998 36.9053Z" fill="#FEB137"/>
<path d="M84.1704 95.6099L74.6097 86.0993C72.3173 83.8189 68.6007 83.8189 66.3087 86.0993L58.5188 93.8484C56.2265 96.1287 56.2265 99.8259 58.5188 102.106L77.7582 121.244L79.8423 122.5L88.7197 122.147L130.451 80.3051L125.865 71.9812L116.587 68.4287L115.192 69.4655L88.9107 95.6096C87.6013 96.9117 85.4794 96.9117 84.1704 95.6099Z" fill="#4FC980"/>
<path d="M132.481 74.8787L125.266 67.7015C122.974 65.4211 119.257 65.4211 116.965 67.7015L115.192 69.4649C116.894 69.286 118.659 69.8427 119.964 71.14L123.69 74.8787C125.983 77.1591 125.983 80.8562 123.69 83.1362L88.178 118.569C85.3567 121.375 81.3398 122.266 77.7585 121.243L78.477 121.958C82.6133 126.073 89.3192 126.073 93.4555 121.958L132.481 83.1366C134.773 80.8562 134.773 77.1591 132.481 74.8787Z" fill="#2DAA5F"/>
<path d="M164.022 28.8467C163.306 28.8467 162.59 28.5751 162.044 28.0315C160.951 26.9445 160.951 25.1822 162.044 24.0956L185.446 0.816177C186.538 -0.270757 188.31 -0.270757 189.402 0.816177C190.495 1.90311 190.495 3.66543 189.402 4.752L166 28.0315C165.454 28.5747 164.738 28.8467 164.022 28.8467Z" fill="#FEB137"/>
<path d="M175.721 45.6573C174.491 45.6573 173.363 44.8438 173.024 43.6059C172.617 42.123 173.496 40.5926 174.987 40.1885L186.687 37.013C188.179 36.6081 189.717 37.4824 190.123 38.9653C190.529 40.4482 189.651 41.9786 188.16 42.3827L176.459 45.5582C176.213 45.6254 175.965 45.6573 175.721 45.6573Z" fill="#FFD15B"/>
<path d="M146.875 17.2077C146.631 17.2077 146.383 17.1758 146.137 17.1087C144.646 16.7042 143.767 15.1741 144.174 13.6913L147.366 2.05153C147.773 0.568635 149.311 -0.306404 150.801 0.0992015C152.292 0.503694 153.171 2.03371 152.764 3.5166L149.572 15.1563C149.233 16.3939 148.105 17.2077 146.875 17.2077Z" fill="#FFD15B"/>
<path d="M26.9781 28.8467C26.2622 28.8467 25.5459 28.5751 24.9998 28.0315L1.59781 4.752C0.505157 3.66506 0.505157 1.90274 1.59781 0.816177C2.69047 -0.270757 4.46206 -0.270757 5.55435 0.816177L28.9563 24.0956C30.049 25.1826 30.049 26.9449 28.9563 28.0315C28.4102 28.5747 27.6939 28.8467 26.9781 28.8467Z" fill="#FEB137"/>
<path d="M15.2784 45.6575C15.0344 45.6575 14.7871 45.6256 14.5402 45.5584L2.83916 42.383C1.34847 41.9785 0.469571 40.4485 0.876565 38.9656C1.28319 37.4827 2.82126 36.6077 4.31195 37.0133L16.0129 40.1887C17.5036 40.5932 18.3825 42.1232 17.9755 43.6061C17.6364 44.8441 16.5087 45.6575 15.2784 45.6575Z" fill="#FFD15B"/>
<path d="M44.125 17.2076C42.8947 17.2076 41.767 16.3938 41.4275 15.1562L38.2353 3.51645C37.8287 2.03356 38.7072 0.503169 40.1979 0.0990477C41.6901 -0.306187 43.2271 0.568852 43.6333 2.05137L46.8255 13.6911C47.2321 15.174 46.3536 16.7044 44.8629 17.1085C44.6163 17.1757 44.3686 17.2076 44.125 17.2076Z" fill="#FFD15B"/>
<path d="M187.424 189.999C186.708 189.999 185.992 189.727 185.446 189.184L162.044 165.904C160.951 164.817 160.951 163.055 162.044 161.969C163.137 160.882 164.908 160.882 166 161.969L189.402 185.248C190.495 186.335 190.495 188.097 189.402 189.184C188.856 189.727 188.14 189.999 187.424 189.999Z" fill="#FEB137"/>
<path d="M187.426 153.085C187.182 153.085 186.934 153.053 186.687 152.986L174.986 149.811C173.496 149.406 172.617 147.876 173.024 146.393C173.431 144.91 174.968 144.036 176.459 144.441L188.16 147.616C189.651 148.021 190.53 149.551 190.123 151.034C189.784 152.271 188.656 153.085 187.426 153.085Z" fill="#FFD15B"/>
<path d="M150.064 189.999C148.833 189.999 147.706 189.186 147.366 187.948L144.174 176.308C143.767 174.825 144.646 173.295 146.137 172.891C147.628 172.486 149.166 173.361 149.572 174.843L152.764 186.483C153.171 187.966 152.292 189.496 150.802 189.9C150.555 189.968 150.308 189.999 150.064 189.999Z" fill="#FFD15B"/>
<path d="M3.57608 189.999C2.8602 189.999 2.14395 189.727 1.59781 189.184C0.505157 188.097 0.505157 186.335 1.59781 185.248L24.9998 161.969C26.0924 160.882 27.864 160.882 28.9563 161.969C30.049 163.055 30.049 164.818 28.9563 165.904L5.55435 189.184C5.00821 189.727 4.29196 189.999 3.57608 189.999Z" fill="#FEB137"/>
<path d="M3.57418 153.085C2.34387 153.085 1.21615 152.272 0.87668 151.034C0.470059 149.551 1.34858 148.02 2.83928 147.616L14.5403 144.441C16.0317 144.036 17.5694 144.911 17.9757 146.393C18.3823 147.876 17.5038 149.406 16.0131 149.811L4.31207 152.986C4.06586 153.053 3.81816 153.085 3.57418 153.085Z" fill="#FFD15B"/>
<path d="M40.9358 189.999C40.6918 189.999 40.4445 189.968 40.1976 189.9C38.7069 189.496 37.828 187.966 38.235 186.483L41.4271 174.843C41.8337 173.36 43.3718 172.486 44.8625 172.891C46.3532 173.295 47.2321 174.825 46.8251 176.308L43.6329 187.948C43.2942 189.186 42.1665 189.999 40.9358 189.999Z" fill="#FFD15B"/>
</g>
<defs>
<clipPath id="clip0_568_25663">
<rect width="191" height="190" fill="white"/>
</clipPath>
</defs>
</svg>
